<?xml version="1.0" encoding="UTF-8" standalone="no"?>
<!DOCTYPE svg PUBLIC "-//W3C//DTD SVG 1.1//EN"
 "http://www.w3.org/Graphics/SVG/1.1/DTD/svg11.dtd">
<!-- Generated by graphviz version 11.0.0 (20240519.1550)
 -->
<!-- Title: snakemake_dag Pages: 1 -->
<svg width="176pt" height="188pt"
 viewBox="0.00 0.00 176.38 188.00" xmlns="http://www.w3.org/2000/svg" xmlns:xlink="http://www.w3.org/1999/xlink">
<g id="graph0" class="graph" transform="scale(1 1) rotate(0) translate(4 184)">
<title>snakemake_dag</title>
<polygon fill="white" stroke="none" points="-4,4 -4,-184 172.38,-184 172.38,4 -4,4"/>
<!-- 0 -->
<g id="node1" class="node">
<title>0</title>
<path fill="none" stroke="#afd856" stroke-width="2" stroke-dasharray="5,2" d="M100.88,-36C100.88,-36 70.88,-36 70.88,-36 64.88,-36 58.88,-30 58.88,-24 58.88,-24 58.88,-12 58.88,-12 58.88,-6 64.88,0 70.88,0 70.88,0 100.88,0 100.88,0 106.88,0 112.88,-6 112.88,-12 112.88,-12 112.88,-24 112.88,-24 112.88,-30 106.88,-36 100.88,-36"/>
<text text-anchor="middle" x="85.88" y="-14.88" font-family="sans" font-size="10.00">results</text>
</g>
<!-- 1 -->
<g id="node2" class="node">
<title>1</title>
<path fill="none" stroke="#56d8a9" stroke-width="2" stroke-dasharray="5,2" d="M65.38,-108C65.38,-108 16.38,-108 16.38,-108 10.38,-108 4.38,-102 4.38,-96 4.38,-96 4.38,-84 4.38,-84 4.38,-78 10.38,-72 16.38,-72 16.38,-72 65.38,-72 65.38,-72 71.38,-72 77.38,-78 77.38,-84 77.38,-84 77.38,-96 77.38,-96 77.38,-102 71.38,-108 65.38,-108"/>
<text text-anchor="middle" x="40.88" y="-86.88" font-family="sans" font-size="10.00">filter_genes</text>
</g>
<!-- 1&#45;&gt;0 -->
<g id="edge1" class="edge">
<title>1&#45;&gt;0</title>
<path fill="none" stroke="grey" stroke-width="2" d="M52.23,-71.34C56.83,-64.18 62.26,-55.73 67.41,-47.73"/>
<polygon fill="grey" stroke="grey" stroke-width="2" points="70.27,-49.75 72.73,-39.45 64.38,-45.97 70.27,-49.75"/>
</g>
<!-- 2 -->
<g id="node3" class="node">
<title>2</title>
<path fill="none" stroke="#d85656" stroke-width="2" stroke-dasharray="5,2" d="M67.75,-180C67.75,-180 12,-180 12,-180 6,-180 0,-174 0,-168 0,-168 0,-156 0,-156 0,-150 6,-144 12,-144 12,-144 67.75,-144 67.75,-144 73.75,-144 79.75,-150 79.75,-156 79.75,-156 79.75,-168 79.75,-168 79.75,-174 73.75,-180 67.75,-180"/>
<text text-anchor="middle" x="39.88" y="-165.25" font-family="sans" font-size="10.00">filter_cells</text>
<text text-anchor="middle" x="39.88" y="-152.5" font-family="sans" font-size="10.00">sample: rd10</text>
</g>
<!-- 2&#45;&gt;1 -->
<g id="edge3" class="edge">
<title>2&#45;&gt;1</title>
<path fill="none" stroke="grey" stroke-width="2" d="M40.13,-143.34C40.22,-136.75 40.33,-129.08 40.44,-121.67"/>
<polygon fill="grey" stroke="grey" stroke-width="2" points="43.93,-121.98 40.58,-111.93 36.93,-121.88 43.93,-121.98"/>
</g>
<!-- 3 -->
<g id="node4" class="node">
<title>3</title>
<path fill="none" stroke="#56d8a9" stroke-width="2" stroke-dasharray="5,2" d="M156.38,-108C156.38,-108 107.38,-108 107.38,-108 101.38,-108 95.38,-102 95.38,-96 95.38,-96 95.38,-84 95.38,-84 95.38,-78 101.38,-72 107.38,-72 107.38,-72 156.38,-72 156.38,-72 162.38,-72 168.38,-78 168.38,-84 168.38,-84 168.38,-96 168.38,-96 168.38,-102 162.38,-108 156.38,-108"/>
<text text-anchor="middle" x="131.88" y="-86.88" font-family="sans" font-size="10.00">filter_genes</text>
</g>
<!-- 3&#45;&gt;0 -->
<g id="edge2" class="edge">
<title>3&#45;&gt;0</title>
<path fill="none" stroke="grey" stroke-width="2" d="M120.27,-71.34C115.56,-64.18 110.01,-55.73 104.75,-47.73"/>
<polygon fill="grey" stroke="grey" stroke-width="2" points="107.72,-45.87 99.3,-39.43 101.87,-49.71 107.72,-45.87"/>
</g>
<!-- 4 -->
<g id="node5" class="node">
<title>4</title>
<path fill="none" stroke="#d85656" stroke-width="2" stroke-dasharray="5,2" d="M155.88,-180C155.88,-180 109.88,-180 109.88,-180 103.88,-180 97.88,-174 97.88,-168 97.88,-168 97.88,-156 97.88,-156 97.88,-150 103.88,-144 109.88,-144 109.88,-144 155.88,-144 155.88,-144 161.88,-144 167.88,-150 167.88,-156 167.88,-156 167.88,-168 167.88,-168 167.88,-174 161.88,-180 155.88,-180"/>
<text text-anchor="middle" x="132.88" y="-165.25" font-family="sans" font-size="10.00">filter_cells</text>
<text text-anchor="middle" x="132.88" y="-152.5" font-family="sans" font-size="10.00">sample: wt</text>
</g>
<!-- 4&#45;&gt;3 -->
<g id="edge4" class="edge">
<title>4&#45;&gt;3</title>
<path fill="none" stroke="grey" stroke-width="2" d="M132.62,-143.34C132.53,-136.75 132.42,-129.08 132.31,-121.67"/>
<polygon fill="grey" stroke="grey" stroke-width="2" points="135.82,-121.88 132.17,-111.93 128.82,-121.98 135.82,-121.88"/>
</g>
</g>
</svg>
